<svg width="512" height="512" viewBox="0 0 512 512" fill="none" xmlns="http://www.w3.org/2000/svg">
  <defs>
    <radialGradient id="glow" cx="0" cy="0" r="1" gradientUnits="userSpaceOnUse" gradientTransform="translate(116 98) rotate(45) scale(280)">
      <stop stop-color="#7DD3FC" stop-opacity="0.72"/>
      <stop offset="0.42" stop-color="#3B82F6" stop-opacity="0"/>
    </radialGradient>
    <linearGradient id="mark" x1="64" y1="64" x2="448" y2="448" gradientUnits="userSpaceOnUse">
      <stop stop-color="#2563EB"/>
      <stop offset="0.58" stop-color="#4F46E5"/>
      <stop offset="1" stop-color="#0EA5E9"/>
    </linearGradient>
    <filter id="shadow" x="0" y="0" width="512" height="512" filterUnits="userSpaceOnUse" color-interpolation-filters="sRGB">
      <feDropShadow dx="0" dy="34" stdDeviation="28" flood-color="#2563EB" flood-opacity="0.22"/>
    </filter>
  </defs>
  <rect width="512" height="512" rx="112" fill="url(#mark)" filter="url(#shadow)"/>
  <rect width="512" height="512" rx="112" fill="url(#glow)"/>
  <rect x="10" y="10" width="492" height="492" rx="104" stroke="white" stroke-opacity="0.2" stroke-width="8"/>
  <path d="M372.7 174.8C344.1 147.2 304.6 130.7 262.1 130.7C176.6 130.7 107.7 199.6 107.7 285.1C107.7 370.6 176.6 439.5 262.1 439.5C304.6 439.5 343.2 423 372.7 395.4" stroke="white" stroke-width="48" stroke-linecap="round" opacity="0.92"/>
  <path d="M190.6 397.8V190.7H243.1L321.5 306.6V190.7H374.8V397.8H322.3L243.9 280.9V397.8H190.6Z" fill="white"/>
  <path d="M269.6 172.2L243.9 265.2H290.7L225.4 420.8L249.3 321.3H206.1L269.6 172.2Z" fill="#FBBF24"/>
  <rect x="70" y="448" width="372" height="8" rx="4" fill="white" fill-opacity="0.2"/>
</svg>
